<svg xmlns="http://www.w3.org/2000/svg" id="_レイヤー_1" viewBox="0 0 202.1 30.3"><defs><linearGradient id="_名称未設定グラデーション" x1="44.2" x2="145.9" y1="1065.9" y2="1065.9" data-name="名称未設定グラデーション" gradientTransform="translate(0 -1051.5)" gradientUnits="userSpaceOnUse"><stop offset="0" stop-color="#e4007f"/><stop offset=".2" stop-color="#e61673"/><stop offset=".5" stop-color="#920783"/><stop offset=".8" stop-color="#601986"/><stop offset="1" stop-color="#601986"/></linearGradient><linearGradient id="_名称未設定グラデーション_2" x1="44.2" x2="145.9" y1="1065.8" y2="1065.8" data-name="名称未設定グラデーション 2" gradientTransform="translate(0 -1051.5)" gradientUnits="userSpaceOnUse"><stop offset="0" stop-color="#e4007f"/><stop offset=".2" stop-color="#e61673"/><stop offset=".5" stop-color="#920783"/><stop offset=".8" stop-color="#601986"/><stop offset="1" stop-color="#601986"/></linearGradient><linearGradient id="_名称未設定グラデーション_3" x1="44.2" x2="145.9" y1="1068.5" y2="1068.5" data-name="名称未設定グラデーション 3" gradientTransform="translate(0 -1051.5)" gradientUnits="userSpaceOnUse"><stop offset="0" stop-color="#e4007f"/><stop offset=".2" stop-color="#e61673"/><stop offset=".5" stop-color="#920783"/><stop offset=".8" stop-color="#601986"/><stop offset="1" stop-color="#601986"/></linearGradient><linearGradient id="_名称未設定グラデーション_4" x1="44.2" x2="145.9" y1="1070.1" y2="1070.1" data-name="名称未設定グラデーション 4" gradientTransform="translate(0 -1051.5)" gradientUnits="userSpaceOnUse"><stop offset="0" stop-color="#e4007f"/><stop offset=".2" stop-color="#e61673"/><stop offset=".5" stop-color="#920783"/><stop offset=".8" stop-color="#601986"/><stop offset="1" stop-color="#601986"/></linearGradient><linearGradient id="_名称未設定グラデーション_5" x1="49.2" x2="150.9" y1="1065.9" y2="1065.9" data-name="名称未設定グラデーション 5" gradientTransform="translate(0 -1051.5)" gradientUnits="userSpaceOnUse"><stop offset="0" stop-color="#e4007f"/><stop offset=".2" stop-color="#e61673"/><stop offset=".5" stop-color="#920783"/><stop offset=".8" stop-color="#601986"/><stop offset="1" stop-color="#601986"/></linearGradient><linearGradient id="_名称未設定グラデーション_6" x1="49.2" x2="150.9" y1="1065.8" y2="1065.8" data-name="名称未設定グラデーション 6" gradientTransform="translate(0 -1051.5)" gradientUnits="userSpaceOnUse"><stop offset="0" stop-color="#e4007f"/><stop offset=".2" stop-color="#e61673"/><stop offset=".5" stop-color="#920783"/><stop offset=".8" stop-color="#601986"/><stop offset="1" stop-color="#601986"/></linearGradient><linearGradient id="_名称未設定グラデーション_7" x1="49.2" x2="150.9" y1="1068.5" y2="1068.5" data-name="名称未設定グラデーション 7" gradientTransform="translate(0 -1051.5)" gradientUnits="userSpaceOnUse"><stop offset="0" stop-color="#e4007f"/><stop offset=".2" stop-color="#e61673"/><stop offset=".5" stop-color="#920783"/><stop offset=".8" stop-color="#601986"/><stop offset="1" stop-color="#601986"/></linearGradient><linearGradient id="_名称未設定グラデーション_8" x1="49.2" x2="150.9" y1="1068.5" y2="1068.5" data-name="名称未設定グラデーション 8" gradientTransform="translate(0 -1051.5)" gradientUnits="userSpaceOnUse"><stop offset="0" stop-color="#e4007f"/><stop offset=".2" stop-color="#e61673"/><stop offset=".5" stop-color="#920783"/><stop offset=".8" stop-color="#601986"/><stop offset="1" stop-color="#601986"/></linearGradient><linearGradient id="_名称未設定グラデーション_9" x1="49.2" x2="150.9" y1="1068.5" y2="1068.5" data-name="名称未設定グラデーション 9" gradientTransform="translate(0 -1051.5)" gradientUnits="userSpaceOnUse"><stop offset="0" stop-color="#e4007f"/><stop offset=".2" stop-color="#e61673"/><stop offset=".5" stop-color="#920783"/><stop offset=".8" stop-color="#601986"/><stop offset="1" stop-color="#601986"/></linearGradient><linearGradient id="_名称未設定グラデーション_10" x1="49.2" x2="150.9" y1="1067.6" y2="1067.6" data-name="名称未設定グラデーション 10" gradientTransform="translate(0 -1051.5)" gradientUnits="userSpaceOnUse"><stop offset="0" stop-color="#e4007f"/><stop offset=".2" stop-color="#e61673"/><stop offset=".5" stop-color="#920783"/><stop offset=".8" stop-color="#601986"/><stop offset="1" stop-color="#601986"/></linearGradient><linearGradient id="_名称未設定グラデーション_11" x1="6.6" x2="21.1" y1="1066.7" y2="1066.7" data-name="名称未設定グラデーション 11" gradientTransform="translate(0 -1051.5)" gradientUnits="userSpaceOnUse"><stop offset="0" stop-color="#e4007f"/><stop offset=".2" stop-color="#e61673"/><stop offset=".5" stop-color="#920783"/><stop offset=".8" stop-color="#601986"/><stop offset="1" stop-color="#601986"/></linearGradient><linearGradient id="_名称未設定グラデーション_12" x1="6.6" x2="21.1" y1="1066.7" y2="1066.7" data-name="名称未設定グラデーション 12" gradientTransform="translate(0 -1051.5)" gradientUnits="userSpaceOnUse"><stop offset="0" stop-color="#e4007f"/><stop offset=".2" stop-color="#e61673"/><stop offset=".5" stop-color="#920783"/><stop offset=".8" stop-color="#601986"/><stop offset="1" stop-color="#601986"/></linearGradient><filter id="outer-glow-1" width="216" height="46" x="-7.1" y="-8.1" filterUnits="userSpaceOnUse"><feOffset/><feGaussianBlur result="blur" stdDeviation="2.8"/><feFlood flood-color="#fff" flood-opacity=".9"/><feComposite in2="blur" operator="in"/><feComposite in="SourceGraphic"/></filter><style>.st4{fill:#601986}.st12{fill:#fff;stroke:#fff;stroke-linecap:round;stroke-linejoin:bevel;stroke-width:2.3px}</style></defs><g style="filter:url(#outer-glow-1)"><path d="m41.3 21.3-.4.1q-.2 0-.2-.3l-.1-1.9-.1-1.2v-.6q0-.3.2-.3h.2l.1.3.2.7.6 1.2.5.6q.3.4.7.6l.9.4 1.1.2q1 0 1.7-.4.6-.3 1-.7.4-.5.4-.9v-.8q0-.6-.2-1.2c-.2-.6-.5-.6-1-.8l-1.3-.7-1.6-.7q-.6-.1-1.2-.4l-1.1-.7-.8-1q-.3-.5-.3-1.4 0-1.2.5-2s.7-.9 1.2-1.2q.7-.6 1.5-.8A5 5 0 0 1 48 8l.4.1h.2l.1-.2.2-.1h.2l.2.1v.8l.1 1.2v1l.1.7v.2h-.4l-.1-.3-.7-1.8-.8-1.1q-.5-.4-1-.6-.8-.3-1.3-.2t-1.1.3q-.6.3-1 .6t-.6.9l-.3 1q0 .7.3 1.1.1.5.6.8.3.3.9.4t1 .4l3.3 1.4q.8.4 1.2 1.2c.4.8.4 1 .4 1.8a4 4 0 0 1-1.3 2.9l-1.6.8a6 6 0 0 1-3.7.1l-.9-.3-.5-.3-.3-.1-.2.1v.2l-.3.3zM56 19.6q0 .6.3 1 0 .3.6.3h.4v.4h-3.6q-.4 0-.4-.2V21h.4q.4 0 .6-.4.3-.5.2-1.1v-10q0-.6-.2-.7l-.4-.3q-.5 0-.5-.3t.2-.2l2-.7h.3q.2 0 .2.2V14l.5-.4.6-.4.9-.4 1-.1 1 .1 1 .5.6 1q.3.6.2 1.5v3.9q0 .6.2 1 .1.3.6.3h.4v.4h-3.9V21h.3q.5 0 .7-.4l.2-.9V16q0-1.5-.5-2-.5-.7-1.4-.7l-.8.2-1.2.8-.4.3v5zM70.6 21.5a4 4 0 0 1-3.1-1.3q-.6-.5-1-1.4-.3-.7-.3-1.8c0-1.1 0-1.3.3-1.8a4 4 0 0 1 2.4-2.3 4 4 0 0 1 3.3 0 4 4 0 0 1 2.4 2.3q.3.7.3 1.8c0 1.1 0 1.3-.3 1.8a4 4 0 0 1-2.3 2.3q-.8.3-1.7.3Zm0-.5q.8 0 1.3-.4t.8-1l.4-1.4v-2.4q0-.8-.4-1.3-.2-.7-.8-1-.5-.6-1.3-.5-1 0-1.4.4l-.8 1-.4 1.4v2.4q0 .8.4 1.3.3.6.8 1t1.4.5ZM78.5 24.2q.3 0 .5-.2.2-.1.2-.9V15q0-.5-.2-.6t-.5-.3l-.3-.2-.2-.1q0-.2.2-.2l2-.9h.3q.3 0 .2.2v.7l1.1-.6q.7-.3 1.6-.4a4 4 0 0 1 2.6 1q.6.6 1 1.4.2.8.3 1.8 0 1.3-.4 2.2t-1.1 1.4q-.8.7-1.4.8l-1.5.3a4 4 0 0 1-2.2-.6v2.3q0 .8.3.9l.8.2h.5v.3l-.4.1h-3.8q-.3 0-.3-.2v-.1h.7v-.1zm2.2-6q0 1.2.6 2 .7.7 1.6.7a3 3 0 0 0 2-1l.6-1 .2-1.7a5 5 0 0 0-.9-2.8 3 3 0 0 0-3.3-.8l-.8.5v4zM97.6 19.2v.7q0 .3.2.5 0 .3.4.3l.8.1.4.1.1.2v.1l-.4.1h-5.3v-.4h.4q.7 0 1-.3t.4-1V9.2q0-.7-.4-1l-1-.2-.4-.1v-.3l.3-.1h5.4V8H99l-.8.2q-.3 0-.4.3l-.2.5v5.7l4.3-4.1.4-.4.4-.4.3-.5.1-.4q0-.4-.2-.6l-.7-.2-.3-.1-.1-.2q0-.2.2-.2h4.7q.3 0 .3.2V8h-.4l-.5.2-.6.3q-.4.1-.8.5l-.8.6-.8.8-.8.7-2.3 2.3 5.1 6.2a4 4 0 0 0 2.5 1.3q.3 0 .4.3l-.1.2H104l-5.6-6.7-1 1v3.6zM113.2 19.6l.1 1q.1.3.7.3h.3l.1.2v.1l-.3.1h-3.3q-.4 0-.4-.2-.1-.1.4-.2.5 0 .6-.3l.2-1.1v-10q0-.4-.2-.6l-.5-.3-.3-.1-.1-.2.1-.2 2-.8h.3q.3 0 .3.2v12.1h0ZM121.9 21.5a4 4 0 0 1-3.1-1.3q-.6-.5-1-1.4-.3-.7-.3-1.8c0-1.1 0-1.3.3-1.8a4 4 0 0 1 2.4-2.3 4 4 0 0 1 3.3 0 4 4 0 0 1 2.4 2.3q.3.7.3 1.8c0 1.1 0 1.3-.3 1.8a4 4 0 0 1-2.4 2.3q-.7.3-1.6.3Zm0-.5q.8 0 1.3-.4t.8-1q.3-.9.4-1.4v-2.4q0-.8-.4-1.3-.2-.7-.8-1-.5-.6-1.3-.5c-.8.1-1 .1-1.4.4s-.6.6-.8 1l-.4 1.4v2.4q0 .8.4 1.3.3.6.8 1t1.4.5ZM129.6 18.7q0-.2.2-.2h.1l.1.3.3.6.3.7.6.6q.4.3 1 .3t1.2-.4q.7-.5.6-1.2t-.4-1q-.5-.4-1-.6l-1.4-.6-.5-.3-.5-.5q-.3-.2-.4-.6l-.2-.9q0-.6.3-1l.6-.8q.3-.3 1-.4l.9-.1 2.2.3q.3.1.3.4l.1 1.6v.2h-.2q0 0-.3-.3-.6-1.8-2.3-1.8l-1 .3-.3.4-.2.6q0 .5.4.9t.9.5l1.4.6 1.3.9.5.7.2 1q0 .8-.4 1.3-.3.5-.9.8l-1 .4a6 6 0 0 1-3.2-.3l-.2-.1-.1-.2v-2.1zM140.3 15.5v.8q0 .8.2 1.5l.5 1.2q.4.6 1 .9t1.5.3a3 3 0 0 0 2.5-1.5l.2-.4.1-.2h.2l.2.1-.3 1a4 4 0 0 1-1.5 1.7q-.8.5-2 .5-1 0-1.8-.3c-.8-.3-.9-.5-1.3-1l-.8-1.4-.2-1.8a5 5 0 0 1 1-3l1.3-1q.7-.3 1.7-.4c1 0 1.2.1 1.7.4l1.1.7.7.8q.3.4.2.7v.3l-.4.1h-5.8zm4.2-.5v-.5l-.4-.7q-.1-.3-.5-.5-.3-.3-.9-.3-.8 0-1.5.5-.5.6-.8 1.5zM152.4 19q0 .7.3 1.2t1 .4 1-.2l.4-.4q.3-.1.3-.2l.2.1v.1q0 .2-.2.4a4 4 0 0 1-1.5 1h-.9l-1-.1-.7-.5q-.2-.3-.3-.7l-.1-.8v-5.7h-1.1v-.3l.1-.2.7-.4 1-1.1.2-.5q.1-.3.2-.3l.2-.1h.2v2.1h3l-.5.8h-2.5V19zM166.9 19.2v.7q0 .3.2.5 0 .3.4.3l.8.1.4.1q0 .1 0 .2v.1l-.3.1h-5.3v-.4h.4q.7 0 1-.3t.4-1V9.2q0-.7-.4-1l-1-.2-.4-.1v-.3l.3-.1h5.3V8h-.4l-.8.2q-.3 0-.4.3l-.2.5v10.3zM174.5 19.6q0 .6.2 1 .1.3.7.3h.3v.4h-3.6l-.4-.1q0-.3.4-.3.6 0 .7-.3l.2-1.1v-4.6q0-.5-.2-.7l-.5-.3-.4-.2v-.2l.1-.2 2-.7h.3q.2 0 .2.3V14l1.1-1 .9-.3 1-.2q1.2 0 2 .9t.8 2.5v3.6q0 .6.2 1 0 .3.6.3l.4.1v.3h-3.9l-.1-.1q0-.3.3-.3.6 0 .7-.2l.2-1v-3.3q0-1.4-.5-2.1t-1.5-.8q-.3 0-.7.2l-1.1.8-.3.3v4.8h0ZM186.9 21.1q-.8-.3-1.2-.9-.6-.5-.9-1.3c-.3-.8-.3-1-.3-1.7a5 5 0 0 1 1.3-3.3 4 4 0 0 1 4.6-1.1l1 .5.6.7.2.6-.2.6-.5.2q-.5 0-.6-.2t-.3-.4l-.2-.6-.2-.6-.5-.4-.8-.2q-.4 0-1 .2c-.6.2-.5.4-.8.7s-.4.8-.6 1.2l-.2 1.8q0 1 .2 1.6.3.8.7 1 .5.5.9.7.5.3 1.1.2t1-.2a3 3 0 0 0 1.4-1q.1-.4.2-.5 0-.3.3-.3t.2.2l-.2.6a4 4 0 0 1-1.8 1.9q-.7.3-1.7.3t-1.7-.3zM197.7 21.5q-.5 0-.8-.4t-.4-.8.4-.8.8-.4.8.4q.4.3.4.8t-.4.8q-.5.3-.8.3Z" class="st12"/><circle cx="15.8" cy="14.9" r="12.5" class="st12"/></g><path d="m41.3 21.3-.4.1q-.2 0-.2-.3l-.1-1.9-.1-1.2v-.6q0-.3.2-.3h.2l.1.3.2.7.6 1.2.5.6q.3.4.7.6l.9.4 1.1.2q1 0 1.7-.4.6-.3 1-.7.4-.5.4-.9v-.8q0-.6-.2-1.2c-.2-.6-.5-.6-1-.8l-1.3-.7-1.6-.7q-.6-.1-1.2-.4l-1.1-.7-.8-1q-.3-.5-.3-1.4 0-1.2.5-2s.7-.9 1.2-1.2q.7-.6 1.5-.8A5 5 0 0 1 48 8l.4.1h.2l.1-.2.2-.1h.2l.2.1v.8l.1 1.2v1l.1.7v.2h-.4l-.1-.3-.7-1.8-.8-1.1q-.5-.4-1-.6-.8-.3-1.3-.2t-1.1.3q-.6.3-1 .6t-.6.9l-.3 1q0 .7.3 1.1.1.5.6.8.3.3.9.4t1 .4l3.3 1.4q.8.4 1.2 1.2c.4.8.4 1 .4 1.8a4 4 0 0 1-1.3 2.9l-1.6.8a6 6 0 0 1-3.7.1l-.9-.3-.5-.3-.3-.1-.2.1v.2z" style="fill:url(#_名称未設定グラデーション)"/><path d="M56 19.6q0 .6.3 1 0 .3.6.3h.4v.4h-3.6q-.4 0-.4-.2V21h.4q.4 0 .6-.4.3-.5.2-1.1v-10q0-.6-.2-.7l-.4-.3q-.5 0-.5-.3t.2-.2l2-.7h.3q.2 0 .2.2V14l.5-.4.6-.4.9-.4 1-.1 1 .1 1 .5.6 1q.3.6.2 1.5v3.9q0 .6.2 1 .1.3.6.3h.4v.4h-3.9V21h.3q.5 0 .7-.4l.2-.9V16q0-1.5-.5-2-.5-.7-1.4-.7l-.8.2-1.2.8-.4.3v5" style="fill:url(#_名称未設定グラデーション_2)"/><path d="M70.6 21.5a4 4 0 0 1-3.1-1.3q-.6-.5-1-1.4-.3-.7-.3-1.8c0-1.1 0-1.3.3-1.8a4 4 0 0 1 2.4-2.3 4 4 0 0 1 3.3 0 4 4 0 0 1 2.4 2.3q.3.7.3 1.8c0 1.1 0 1.3-.3 1.8a4 4 0 0 1-2.3 2.3q-.8.3-1.7.3m0-.5q.8 0 1.3-.4t.8-1l.4-1.4v-2.4q0-.8-.4-1.3-.2-.7-.8-1-.5-.6-1.3-.5-1 0-1.4.4l-.8 1-.4 1.4v2.4q0 .8.4 1.3.3.6.8 1t1.4.5" style="fill:url(#_名称未設定グラデーション_3)"/><path d="M78.5 24.2q.3 0 .5-.2.2-.1.2-.9V15q0-.5-.2-.6t-.5-.3l-.3-.2-.2-.1q0-.2.2-.2l2-.9h.3q.3 0 .2.2v.7l1.1-.6q.7-.3 1.6-.4a4 4 0 0 1 2.6 1q.6.6 1 1.4.2.8.3 1.8 0 1.3-.4 2.2t-1.1 1.4q-.8.7-1.4.8l-1.5.3a4 4 0 0 1-2.2-.6v2.3q0 .8.3.9l.8.2h.5v.3l-.4.1h-3.8q-.3 0-.3-.2v-.1h.7zm2.2-6q0 1.2.6 2 .7.7 1.6.7a3 3 0 0 0 2-1l.6-1 .2-1.7a5 5 0 0 0-.9-2.8 3 3 0 0 0-3.3-.8l-.8.5z" style="fill:url(#_名称未設定グラデーション_4)"/><path d="M97.6 19.2v.7q0 .3.2.5 0 .3.4.3l.8.1.4.1.1.2v.1l-.4.1h-5.3v-.4h.4q.7 0 1-.3t.4-1V9.2q0-.7-.4-1l-1-.2-.4-.1v-.3l.3-.1h5.4V8H99l-.8.2q-.3 0-.4.3l-.2.5v5.7l4.3-4.1.4-.4.4-.4.3-.5.1-.4q0-.4-.2-.6l-.7-.2-.3-.1-.1-.2q0-.2.2-.2h4.7q.3 0 .3.2V8h-.4l-.5.2-.6.3q-.4.1-.8.5l-.8.6-.8.8-.8.7-2.3 2.3 5.1 6.2a4 4 0 0 0 2.5 1.3q.3 0 .4.3l-.1.2H104l-5.6-6.7-1 1z" style="fill:url(#_名称未設定グラデーション_5)"/><path d="m113.2 19.6.1 1q.1.3.7.3h.3l.1.2v.1l-.3.1h-3.3q-.4 0-.4-.2-.1-.1.4-.2.5 0 .6-.3l.2-1.1v-10q0-.4-.2-.6l-.5-.3-.3-.1-.1-.2.1-.2 2-.8h.3q.3 0 .3.2z" style="fill:url(#_名称未設定グラデーション_6)"/><path d="M121.9 21.5a4 4 0 0 1-3.1-1.3q-.6-.5-1-1.4-.3-.7-.3-1.8c0-1.1 0-1.3.3-1.8a4 4 0 0 1 2.4-2.3 4 4 0 0 1 3.3 0 4 4 0 0 1 2.4 2.3q.3.7.3 1.8c0 1.1 0 1.3-.3 1.8a4 4 0 0 1-2.4 2.3q-.7.3-1.6.3m0-.5q.8 0 1.3-.4t.8-1q.3-.9.4-1.4v-2.4q0-.8-.4-1.3-.2-.7-.8-1-.5-.6-1.3-.5c-.8.1-1 .1-1.4.4s-.6.6-.8 1l-.4 1.4v2.4q0 .8.4 1.3.3.6.8 1t1.4.5" style="fill:url(#_名称未設定グラデーション_7)"/><path d="M129.6 18.7q0-.2.2-.2h.1l.1.3.3.6.3.7.6.6q.4.3 1 .3t1.2-.4q.7-.5.6-1.2t-.4-1q-.5-.4-1-.6l-1.4-.6-.5-.3-.5-.5q-.3-.2-.4-.6l-.2-.9q0-.6.3-1l.6-.8q.3-.3 1-.4l.9-.1 2.2.3q.3.1.3.4l.1 1.6v.2h-.2q0 0-.3-.3-.6-1.8-2.3-1.8l-1 .3-.3.4-.2.6q0 .5.4.9t.9.5l1.4.6 1.3.9.5.7.2 1q0 .8-.4 1.3-.3.5-.9.8l-1 .4a6 6 0 0 1-3.2-.3l-.2-.1-.1-.2z" style="fill:url(#_名称未設定グラデーション_8)"/><path d="M140.3 15.5v.8q0 .8.2 1.5l.5 1.2q.4.6 1 .9t1.5.3a3 3 0 0 0 2.5-1.5l.2-.4.1-.2h.2l.2.1-.3 1a4 4 0 0 1-1.5 1.7q-.8.5-2 .5-1 0-1.8-.3c-.8-.3-.9-.5-1.3-1l-.8-1.4-.2-1.8a5 5 0 0 1 1-3l1.3-1q.7-.3 1.7-.4c1 0 1.2.1 1.7.4l1.1.7.7.8q.3.4.2.7v.3l-.4.1zm4.2-.5v-.5l-.4-.7q-.1-.3-.5-.5-.3-.3-.9-.3-.8 0-1.5.5-.5.6-.8 1.5z" style="fill:url(#_名称未設定グラデーション_9)"/><path d="M152.4 19q0 .7.3 1.2t1 .4 1-.2l.4-.4q.3-.1.3-.2l.2.1v.1q0 .2-.2.4a4 4 0 0 1-1.5 1h-.9l-1-.1-.7-.5q-.2-.3-.3-.7l-.1-.8v-5.7h-1.1v-.3l.1-.2.7-.4 1-1.1.2-.5q.1-.3.2-.3l.2-.1h.2v2.1h3l-.5.8h-2.5z" style="fill:url(#_名称未設定グラデーション_10)"/><path d="M166.9 19.2v.7q0 .3.2.5 0 .3.4.3l.8.1.4.1q0 .1 0 .2v.1l-.3.1h-5.3v-.4h.4q.7 0 1-.3t.4-1V9.2q0-.7-.4-1l-1-.2-.4-.1v-.3l.3-.1h5.3V8h-.4l-.8.2q-.3 0-.4.3l-.2.5v10.3M174.5 19.6q0 .6.2 1 .1.3.7.3h.3v.4h-3.6l-.4-.1q0-.3.4-.3.6 0 .7-.3l.2-1.1v-4.6q0-.5-.2-.7l-.5-.3-.4-.2v-.2l.1-.2 2-.7h.3q.2 0 .2.3V14l1.1-1 .9-.3 1-.2q1.2 0 2 .9t.8 2.5v3.6q0 .6.2 1 0 .3.6.3l.4.1v.3h-3.9l-.1-.1q0-.3.3-.3.6 0 .7-.2l.2-1v-3.3q0-1.4-.5-2.1t-1.5-.8q-.3 0-.7.2l-1.1.8-.3.3zM186.9 21.1q-.8-.3-1.2-.9-.6-.5-.9-1.3c-.3-.8-.3-1-.3-1.7a5 5 0 0 1 1.3-3.3 4 4 0 0 1 4.6-1.1l1 .5.6.7.2.6-.2.6-.5.2q-.5 0-.6-.2t-.3-.4l-.2-.6-.2-.6-.5-.4-.8-.2q-.4 0-1 .2c-.6.2-.5.4-.8.7s-.4.8-.6 1.2l-.2 1.8q0 1 .2 1.6.3.8.7 1 .5.5.9.7.5.3 1.1.2t1-.2a3 3 0 0 0 1.4-1q.1-.4.2-.5 0-.3.3-.3t.2.2l-.2.6a4 4 0 0 1-1.8 1.9q-.7.3-1.7.3t-1.7-.3M197.7 21.5q-.5 0-.8-.4t-.4-.8.4-.8.8-.4.8.4q.4.3.4.8t-.4.8q-.5.3-.8.3" class="st4"/><circle cx="15.8" cy="14.9" r="12.5" style="fill:#fadce2"/><path d="m7.2 21.1-.2.1q-.2 0-.2-.2v-1.6l-.2-1.1v-.6q0-.2.2-.2H7v.2l.2.7a4 4 0 0 0 1.4 2l.8.4.9.1q.8 0 1.3-.3t.7-.6l.4-.8v-.6q0-.6-.2-1-.3-.6-.7-.8-.5-.5-1-.6l-1.4-.6-1-.4-.8-.6-.6-.8q-.3-.5-.2-1.3 0-1 .3-1.6.4-.8 1-1.2l1.2-.6a4 4 0 0 1 2.1-.1l.7.2.6.3.3.1h.2v-.2l.2-.1q0 0 .2 0l.1.1v.7l.1 1v1.7h-.2l-.1-.3L13 11l-.7-1-.8-.5-1-.1q-.4 0-.9.2-.4.1-.7.5-.4.3-.6.8t-.1 1l.1.8.5.7.7.4 2.2.8q.8.3 1.3.7l.9 1q.3.7.3 1.6 0 .8-.3 1.4l-.7 1.1-1.3.8q-.7.3-1.5.2T9 21.2l-.7-.2-.4-.3h-.4v.2z" style="fill:url(#_名称未設定グラデーション_11)"/><path d="M16.8 19.3v.6l.2.5.4.2.6.1h.3v.4h-4.4l-.1-.2v-.1h.4q.5 0 .8-.3t.2-.8v-9q0-.7-.2-1l-.8-.1-.3-.1-.1-.1v-.2h4.5v.3H18q-.4 0-.7.2-.2 0-.3.2l-.2.5v5l3.4-3.6.4-.4.3-.4q.1-.2.2-.3l.1-.5q0-.3-.2-.5l-.5-.1-.3-.1v-.2l.1-.1H24l.2.1v.2h-.3l-.9.4-.6.4-.6.6-.7.7-.6.6-1.8 2 4 5.3q.4.6 1 .9t1 .3q.3 0 .3.3v.1h-3l-4.4-5.7-.8.8z" style="fill:url(#_名称未設定グラデーション_12)"/></svg>