<?xml version="1.0" encoding="UTF-8"?>
<svg id="_レイヤー_1" data-name="レイヤー_1" xmlns="http://www.w3.org/2000/svg" version="1.1" xmlns:xlink="http://www.w3.org/1999/xlink" viewBox="0 0 512 512">
  <!-- Generator: Adobe Illustrator 30.2.1, SVG Export Plug-In . SVG Version: 2.1.1 Build 1)  -->
  <defs>
    <linearGradient id="_新規グラデーションスウォッチ_5" data-name="新規グラデーションスウォッチ 5" x1="68.4" y1="254.4" x2="361.8" y2="254.4" gradientUnits="userSpaceOnUse">
      <stop offset="0" stop-color="#e3007f"/>
      <stop offset=".2" stop-color="#e51373"/>
      <stop offset=".5" stop-color="#910782"/>
      <stop offset=".8" stop-color="#5f1985"/>
      <stop offset="1" stop-color="#5f1985"/>
    </linearGradient>
    <linearGradient id="_新規グラデーションスウォッチ_51" data-name="新規グラデーションスウォッチ 5" x1="68.5" y1="254.7" x2="362" y2="254.7" xlink:href="#_新規グラデーションスウォッチ_5"/>
  </defs>
  <circle cx="256" cy="256" r="253.9" fill="#f9dbe1"/>
  <g>
    <path d="M81,375.2c-1.5,1.6-3.2,2.4-5.1,2.4s-3.6-1.6-3.8-4.9l-1.6-33c-.4-8.3-.9-15.8-1.4-22.3-.5-6.5-.8-10.2-.8-11.1,0-2.5,1.5-3.8,4.4-3.8s2.1.3,3,.9c1,.6,1.5,1.8,1.7,3.7.4,2.1,1.5,6.3,3.2,12.5,1.7,6.3,4.6,13.1,8.8,20.5,2.5,3.9,5.4,7.8,8.5,11.6,3.2,3.8,6.8,7.2,11.1,10.1,4.2,2.9,9,5.2,14.4,7,5.4,1.7,11.4,2.6,18.2,2.6,11.4,0,20.4-1.9,27-5.6,6.6-3.7,11.7-8.1,15.2-13,3.5-5,5.7-10.2,6.6-15.6.9-5.4,1.4-9.9,1.4-13.4,0-8.3-1.7-15.4-5.1-21.2-3.4-5.8-8.1-11-14.1-15.5-6-4.5-13.1-8.5-21.3-12-8.2-3.5-17.2-7.2-26.9-11.1-6.3-2.5-12.7-5.4-19.1-8.5-6.4-3.1-12.2-7-17.4-11.7-5.2-4.6-9.3-10.4-12.5-17.2-3.2-6.8-4.7-15.2-4.7-25.2s2.5-24.5,7.6-33.9c5.1-9.4,11.4-17,19-22.9,7.6-5.9,15.7-10.3,24.5-13,8.7-2.8,16.8-4.2,24.2-4.2s13.9.8,19.4,2.3c5.6,1.5,10.4,3.2,14.5,5.2,4.1,2,7.5,3.7,10.3,5.2,2.7,1.5,5.1,2.3,7,2.3s2.3-.4,3.2-1.2c.8-.8,1.6-1.7,2.4-2.6.7-.9,1.5-1.8,2.4-2.6.8-.8,1.9-1.2,3.2-1.2,2.3,0,3.5,1.4,3.5,4.2s.1,6.4.3,13c.2,6.6.5,13.6.9,21,.4,6.7.8,12.9,1.3,18.4.4,5.6.6,9.5.6,11.8s-.4,2.3-1.1,2.8c-.7.5-1.6.7-2.7.7s-2.5-.3-3-.9c-.5-.6-1-2-1.4-4.3-3-12.5-6.4-22.9-10.4-31.3-4-8.3-8.6-15-13.8-19.8-5.2-4.9-10.8-8.3-16.9-10.4-6.1-2.1-12.6-3.1-19.6-3.1s-12.3,1.3-18,4c-5.7,2.7-10.7,6.3-15.2,10.8-4.4,4.5-7.9,9.8-10.4,15.8-2.5,6-3.8,12.4-3.8,19.1s1.2,13.7,3.6,18.8c2.4,5.1,5.7,9.4,9.8,12.9,4.1,3.5,8.9,6.4,14.4,8.7,5.5,2.3,11.4,4.5,17.7,6.6,8.8,3,17.9,6.3,27.2,9.9,9.3,3.6,17.6,8.3,25,14.1,7.4,5.8,13.4,12.9,18.2,21.2,4.7,8.3,7.1,18.8,7.1,31.3s-1.8,19.6-5.5,28.3c-3.7,8.7-9,16.3-15.8,22.8-6.9,6.5-15.1,11.5-24.7,15.1-9.6,3.6-20.3,5.4-32.1,5.4s-20.3-1.4-27.3-4.2c-7.1-2.8-11.8-4.6-14.1-5.6-3.6-1.9-6.3-3.5-8.1-4.9-1.8-1.4-3.4-2.1-4.9-2.1s-2.3.6-3,1.9c-.7,1.3-1.4,2.4-2.1,3.3l-3.2,5.2Z" fill="url(#_新規グラデーションスウォッチ_5)"/>
    <path d="M275.1,338.7c0,4.9.2,9.2.6,12.9.4,3.7,1.4,6.7,3,9,1.6,2.3,4,4.1,7.1,5.2,3.2,1.2,7.4,1.7,12.6,1.7s5.2.4,6.2,1.2c.9.8,1.4,1.8,1.4,3s-.3,1.9-.8,2.8c-.5.9-2.2,1.4-4.9,1.4s-7.3-.1-13.6-.3c-6.3-.2-15.5-.3-27.5-.3s-20.6.1-26.4.3c-5.8.2-10.1.3-12.8.3s-4.4-.5-5.1-1.4c-.6-.9-.9-1.9-.9-2.8s.5-2.1,1.6-3c1.1-.8,3.1-1.2,6-1.2,6.7,0,12-1.5,15.8-4.5,3.8-3,5.7-8.8,5.7-17.4v-182.5c0-8.8-1.9-14.7-5.7-17.6-3.8-2.9-9.1-4.3-15.8-4.3s-5-.4-6-1.2c-1.1-.8-1.6-1.8-1.6-3s.3-2.1.9-3c.6-.8,2.3-1.2,5.1-1.2s7,0,12.8.2c5.8.1,14.6.2,26.4.2s21.2,0,27.5-.2c6.3-.1,10.9-.2,13.6-.2s4.4.4,4.9,1.2c.5.8.8,1.8.8,3s-.5,2.1-1.4,3c-1,.8-3,1.2-6.2,1.2-5.3,0-9.5.6-12.6,1.7-3.2,1.2-5.5,2.9-7.1,5.2-1.6,2.3-2.6,5.3-3,8.9-.4,3.6-.6,7.8-.6,12.7v89.4l69.2-73.7c2.3-2.3,4.6-4.7,7-7.1,2.3-2.4,4.4-4.9,6.3-7.3,1.9-2.4,3.5-5,4.7-7.7,1.3-2.7,1.9-5.5,1.9-8.5,0-4.6-1.5-8-4.6-10.3-3.1-2.2-6.4-3.3-10-3.3s-5-.5-6-1.6c-1.1-1-1.6-2-1.6-3,0-2.5,1.4-3.8,4.1-3.8s7.9,0,13.6.2c5.7.1,12.9.2,21.5.2s16.3,0,23.5-.2c7.3-.1,12.8-.2,16.6-.2s4.7,1.3,4.7,3.8-.3,1.9-.9,2.8c-.6.9-2.3,1.5-5.1,1.7-2.1.2-5,.9-8.7,2.1-3.7,1.2-7.1,2.7-10.3,4.5-3.8,2.3-7.8,5.3-12,8.9-4.2,3.6-8.5,7.5-13,11.8-4.4,4.3-8.8,8.6-13.1,13-4.3,4.4-8.3,8.6-11.9,12.5l-37.6,40.3,82.2,108.8c5.3,7,11.6,12.6,19,17,7.4,4.4,14.3,6.8,20.9,7.3,3.6.2,5.4,1.7,5.4,4.5s-.4,1.9-1.3,3c-.8,1-2.2,1.6-4.1,1.6-4.6,0-9.5-.2-14.7-.7-5.2-.5-9.9-.7-14.1-.7h-13.6c-4.6,0-9.2.1-13.6.3l-89.1-117.2-15.5,16.3v64Z" fill="url(#_新規グラデーションスウォッチ_51)"/>
  </g>
</svg>