<?xml version="1.0" encoding="UTF-8"?>
<svg id="_レイヤー_1" xmlns="http://www.w3.org/2000/svg" version="1.1" xmlns:xlink="http://www.w3.org/1999/xlink" viewBox="0 0 202.11 30.33">
  <!-- Generator: Adobe Illustrator 30.1.0, SVG Export Plug-In . SVG Version: 2.1.1 Build 136)  -->
  <defs>
    <style>
      .st0 {
        fill: url(#_名称未設定グラデーション_5);
      }

      .st1 {
        fill: url(#_名称未設定グラデーション_6);
      }

      .st2 {
        fill: url(#_名称未設定グラデーション_2);
      }

      .st3 {
        fill: url(#_名称未設定グラデーション_11);
      }

      .st4 {
        fill: #601986;
      }

      .st5 {
        fill: url(#_名称未設定グラデーション);
      }

      .st6 {
        fill: url(#_名称未設定グラデーション_12);
      }

      .st7 {
        fill: url(#_名称未設定グラデーション_8);
      }

      .st8 {
        fill: url(#_名称未設定グラデーション_4);
      }

      .st9 {
        fill: url(#_名称未設定グラデーション_3);
      }

      .st10 {
        filter: url(#outer-glow-1);
      }

      .st11 {
        fill: #fadce2;
      }

      .st12 {
        fill: #fff;
        stroke: #fff;
        stroke-linecap: round;
        stroke-linejoin: bevel;
        stroke-width: 2.3px;
      }

      .st13 {
        fill: url(#_名称未設定グラデーション_10);
      }

      .st14 {
        fill: url(#_名称未設定グラデーション_7);
      }

      .st15 {
        fill: url(#_名称未設定グラデーション_9);
      }
    </style>
    <filter id="outer-glow-1" x="-7.13" y="-8.08" width="216" height="46" filterUnits="userSpaceOnUse">
      <feOffset dx="0" dy="0"/>
      <feGaussianBlur result="blur" stdDeviation="2.83"/>
      <feFlood flood-color="#fff" flood-opacity=".9"/>
      <feComposite in2="blur" operator="in"/>
      <feComposite in="SourceGraphic"/>
    </filter>
    <linearGradient id="_名称未設定グラデーション" data-name="名称未設定グラデーション" x1="44.23" y1="1065.94" x2="145.93" y2="1065.94" gradientTransform="translate(0 -1051.52)" gradientUnits="userSpaceOnUse">
      <stop offset="0" stop-color="#e4007f"/>
      <stop offset=".17" stop-color="#e61673"/>
      <stop offset=".49" stop-color="#920783"/>
      <stop offset=".77" stop-color="#601986"/>
      <stop offset="1" stop-color="#601986"/>
    </linearGradient>
    <linearGradient id="_名称未設定グラデーション_2" data-name="名称未設定グラデーション 2" x1="44.23" y1="1065.84" x2="145.93" y2="1065.84" gradientTransform="translate(0 -1051.52)" gradientUnits="userSpaceOnUse">
      <stop offset="0" stop-color="#e4007f"/>
      <stop offset=".17" stop-color="#e61673"/>
      <stop offset=".49" stop-color="#920783"/>
      <stop offset=".77" stop-color="#601986"/>
      <stop offset="1" stop-color="#601986"/>
    </linearGradient>
    <linearGradient id="_名称未設定グラデーション_3" data-name="名称未設定グラデーション 3" x1="44.23" y1="1068.52" x2="145.93" y2="1068.52" gradientTransform="translate(0 -1051.52)" gradientUnits="userSpaceOnUse">
      <stop offset="0" stop-color="#e4007f"/>
      <stop offset=".17" stop-color="#e61673"/>
      <stop offset=".49" stop-color="#920783"/>
      <stop offset=".77" stop-color="#601986"/>
      <stop offset="1" stop-color="#601986"/>
    </linearGradient>
    <linearGradient id="_名称未設定グラデーション_4" data-name="名称未設定グラデーション 4" x1="44.23" y1="1070.12" x2="145.93" y2="1070.12" gradientTransform="translate(0 -1051.52)" gradientUnits="userSpaceOnUse">
      <stop offset="0" stop-color="#e4007f"/>
      <stop offset=".17" stop-color="#e61673"/>
      <stop offset=".49" stop-color="#920783"/>
      <stop offset=".77" stop-color="#601986"/>
      <stop offset="1" stop-color="#601986"/>
    </linearGradient>
    <linearGradient id="_名称未設定グラデーション_5" data-name="名称未設定グラデーション 5" x1="49.23" y1="1065.94" x2="150.93" y2="1065.94" gradientTransform="translate(0 -1051.52)" gradientUnits="userSpaceOnUse">
      <stop offset="0" stop-color="#e4007f"/>
      <stop offset=".17" stop-color="#e61673"/>
      <stop offset=".49" stop-color="#920783"/>
      <stop offset=".77" stop-color="#601986"/>
      <stop offset="1" stop-color="#601986"/>
    </linearGradient>
    <linearGradient id="_名称未設定グラデーション_6" data-name="名称未設定グラデーション 6" x1="49.23" y1="1065.83" x2="150.93" y2="1065.83" gradientTransform="translate(0 -1051.52)" gradientUnits="userSpaceOnUse">
      <stop offset="0" stop-color="#e4007f"/>
      <stop offset=".17" stop-color="#e61673"/>
      <stop offset=".49" stop-color="#920783"/>
      <stop offset=".77" stop-color="#601986"/>
      <stop offset="1" stop-color="#601986"/>
    </linearGradient>
    <linearGradient id="_名称未設定グラデーション_7" data-name="名称未設定グラデーション 7" x1="49.23" y1="1068.52" x2="150.93" y2="1068.52" gradientTransform="translate(0 -1051.52)" gradientUnits="userSpaceOnUse">
      <stop offset="0" stop-color="#e4007f"/>
      <stop offset=".17" stop-color="#e61673"/>
      <stop offset=".49" stop-color="#920783"/>
      <stop offset=".77" stop-color="#601986"/>
      <stop offset="1" stop-color="#601986"/>
    </linearGradient>
    <linearGradient id="_名称未設定グラデーション_8" data-name="名称未設定グラデーション 8" x1="49.23" y1="1068.52" x2="150.93" y2="1068.52" gradientTransform="translate(0 -1051.52)" gradientUnits="userSpaceOnUse">
      <stop offset="0" stop-color="#e4007f"/>
      <stop offset=".17" stop-color="#e61673"/>
      <stop offset=".49" stop-color="#920783"/>
      <stop offset=".77" stop-color="#601986"/>
      <stop offset="1" stop-color="#601986"/>
    </linearGradient>
    <linearGradient id="_名称未設定グラデーション_9" data-name="名称未設定グラデーション 9" x1="49.23" y1="1068.52" x2="150.93" y2="1068.52" gradientTransform="translate(0 -1051.52)" gradientUnits="userSpaceOnUse">
      <stop offset="0" stop-color="#e4007f"/>
      <stop offset=".17" stop-color="#e61673"/>
      <stop offset=".49" stop-color="#920783"/>
      <stop offset=".77" stop-color="#601986"/>
      <stop offset="1" stop-color="#601986"/>
    </linearGradient>
    <linearGradient id="_名称未設定グラデーション_10" data-name="名称未設定グラデーション 10" x1="49.23" y1="1067.59" x2="150.93" y2="1067.59" gradientTransform="translate(0 -1051.52)" gradientUnits="userSpaceOnUse">
      <stop offset="0" stop-color="#e4007f"/>
      <stop offset=".17" stop-color="#e61673"/>
      <stop offset=".49" stop-color="#920783"/>
      <stop offset=".77" stop-color="#601986"/>
      <stop offset="1" stop-color="#601986"/>
    </linearGradient>
    <linearGradient id="_名称未設定グラデーション_11" data-name="名称未設定グラデーション 11" x1="6.61" y1="1066.68" x2="21.1" y2="1066.68" gradientTransform="translate(0 -1051.52)" gradientUnits="userSpaceOnUse">
      <stop offset="0" stop-color="#e4007f"/>
      <stop offset=".17" stop-color="#e61673"/>
      <stop offset=".49" stop-color="#920783"/>
      <stop offset=".77" stop-color="#601986"/>
      <stop offset="1" stop-color="#601986"/>
    </linearGradient>
    <linearGradient id="_名称未設定グラデーション_12" data-name="名称未設定グラデーション 12" x1="6.62" y1="1066.68" x2="21.1" y2="1066.68" gradientTransform="translate(0 -1051.52)" gradientUnits="userSpaceOnUse">
      <stop offset="0" stop-color="#e4007f"/>
      <stop offset=".17" stop-color="#e61673"/>
      <stop offset=".49" stop-color="#920783"/>
      <stop offset=".77" stop-color="#601986"/>
      <stop offset="1" stop-color="#601986"/>
    </linearGradient>
  </defs>
  <g class="st10">
    <g>
      <g>
        <path class="st12" d="M41.25,21.27c-.09.09-.2.14-.32.14-.15,0-.22-.09-.24-.28l-.1-1.88c-.03-.47-.06-.9-.09-1.26-.03-.37-.05-.58-.05-.63,0-.14.09-.22.28-.22.07,0,.13.02.19.05s.1.1.11.21c.03.12.09.36.2.71.11.36.29.74.55,1.17.16.22.34.44.53.66.2.22.43.41.69.57s.56.3.9.4.71.15,1.14.15c.71,0,1.27-.11,1.69-.32.41-.21.73-.46.95-.74s.36-.58.41-.89c.06-.31.09-.56.09-.76,0-.47-.11-.88-.32-1.21s-.5-.62-.88-.88-.82-.48-1.33-.68c-.51-.2-1.07-.41-1.68-.63-.4-.14-.79-.31-1.2-.48-.4-.18-.76-.4-1.09-.66-.32-.26-.58-.59-.78-.98-.2-.39-.3-.87-.3-1.43,0-.75.16-1.39.47-1.93s.71-.97,1.19-1.3c.47-.34.98-.58,1.53-.74s1.05-.24,1.51-.24.87.04,1.22.13c.35.09.65.18.91.3.26.11.47.21.64.3s.32.13.43.13c.08,0,.14-.02.2-.07.05-.05.1-.1.15-.15.05-.05.1-.1.15-.15.05-.05.12-.07.2-.07.14,0,.22.08.22.24,0,.12,0,.37.02.74,0,.38.03.77.06,1.2.03.38.05.73.08,1.05.03.32.04.54.04.67,0,.08-.02.13-.07.16s-.1.04-.17.04c-.09,0-.16-.02-.19-.05s-.06-.12-.09-.25c-.18-.71-.4-1.3-.65-1.78-.25-.47-.54-.85-.86-1.13s-.68-.47-1.06-.59-.79-.18-1.22-.18c-.4,0-.77.08-1.13.23s-.67.36-.95.61c-.28.26-.49.56-.65.9s-.24.7-.24,1.09c0,.42.08.78.23,1.07.15.29.36.53.61.73.26.2.56.36.9.49s.71.26,1.11.38c.55.17,1.12.36,1.7.56.58.2,1.1.47,1.56.8.46.33.84.73,1.14,1.21s.44,1.07.44,1.78c0,.58-.12,1.12-.35,1.61s-.56.93-.99,1.29c-.43.37-.94.66-1.54.86-.6.2-1.27.31-2.01.31-.7,0-1.27-.08-1.71-.24s-.73-.26-.88-.32c-.22-.11-.39-.2-.5-.28s-.21-.12-.31-.12c-.08,0-.14.04-.19.11s-.09.14-.13.19l-.2.3s.03-.02.03-.02Z"/>
        <path class="st12" d="M56.09,19.59c0,.46.05.79.16,1,.11.2.33.31.67.31.18,0,.3.02.35.07s.07.1.07.17c0,.04-.03.08-.08.12-.05.04-.16.06-.32.06h-1.67c-.26,0-.54,0-.84.02-.3.01-.54.02-.72.02-.26,0-.4-.07-.4-.22,0-.07.03-.12.08-.15.05-.03.15-.05.3-.05.3,0,.52-.11.65-.34s.2-.6.2-1.12v-10.05c0-.31-.06-.52-.19-.63-.13-.11-.29-.2-.5-.27-.29-.11-.43-.22-.43-.34,0-.09.05-.16.16-.22l1.96-.66c.16-.03.27-.05.34-.05.16,0,.24.09.24.28v6.4c.11-.12.25-.25.43-.41.18-.15.4-.3.65-.43.25-.14.53-.26.85-.36.32-.1.65-.15,1.01-.15s.72.04,1.07.13c.34.09.65.24.92.47.27.23.48.55.64.95s.24.92.24,1.55v3.87c0,.47.06.82.18,1.04.12.22.33.33.63.33.18,0,.3.02.36.06.05.04.08.1.08.18,0,.05-.02.1-.06.14-.04.04-.13.06-.28.06-.12,0-.31,0-.57-.03-.26-.02-.59-.03-.97-.03s-.72,0-1.01.03c-.29.02-.54.03-.75.03-.18,0-.3-.02-.34-.06-.04-.04-.06-.09-.06-.14,0-.08.02-.14.06-.18s.13-.06.28-.06c.34,0,.58-.1.71-.29.13-.19.2-.5.2-.92v-3.71c0-.97-.16-1.66-.48-2.06-.32-.4-.81-.6-1.45-.6-.29,0-.56.05-.81.15-.25.1-.47.21-.67.35-.2.13-.37.27-.51.41-.15.15-.26.26-.34.36v5.02l-.04-.05Z"/>
        <path class="st12" d="M70.56,21.45c-.61,0-1.18-.11-1.71-.33s-1-.52-1.39-.91c-.4-.39-.71-.86-.94-1.4-.23-.55-.35-1.15-.35-1.81s.12-1.26.35-1.81c.23-.55.54-1.01.94-1.4.4-.39.86-.69,1.39-.91s1.1-.33,1.71-.33,1.16.11,1.69.33,1,.52,1.39.91c.4.39.71.86.94,1.4.23.55.35,1.15.35,1.81s-.12,1.26-.35,1.81c-.23.55-.54,1.01-.94,1.4s-.86.69-1.39.91-1.1.33-1.69.33ZM70.56,20.99c.57,0,1.02-.14,1.37-.42.35-.28.61-.63.79-1.05s.3-.85.36-1.3c.06-.45.09-.86.09-1.22s-.03-.77-.09-1.23c-.06-.47-.18-.91-.36-1.31-.18-.41-.44-.75-.79-1.04-.35-.28-.81-.42-1.37-.42s-1.04.14-1.38.42-.61.63-.79,1.04-.31.85-.37,1.31c-.06.47-.09.88-.09,1.23s.03.76.09,1.22c.06.45.18.89.37,1.3.18.41.45.76.79,1.05.34.28.8.42,1.38.42Z"/>
        <path class="st12" d="M78.48,24.2c.26,0,.44-.07.54-.2.1-.13.15-.43.15-.89v-8.24c0-.24-.04-.42-.13-.54s-.25-.23-.5-.33c-.17-.07-.3-.12-.38-.16-.08-.04-.12-.09-.12-.16,0-.09.05-.16.16-.22l1.96-.85c.16-.04.26-.06.32-.06.17,0,.26.09.26.28v.71c.28-.24.64-.46,1.08-.67s.97-.32,1.59-.32c.45,0,.9.08,1.36.25.46.16.88.42,1.24.76.37.34.67.78.9,1.3.23.53.35,1.15.35,1.88,0,.84-.14,1.56-.41,2.15-.28.59-.63,1.07-1.06,1.44s-.9.64-1.41.8-1.01.25-1.48.25c-.55,0-1.02-.07-1.4-.22-.38-.14-.63-.26-.75-.34v2.31c0,.45.08.73.24.86.16.13.43.19.81.19.25,0,.41.02.46.06.06.04.09.09.09.16,0,.05-.03.1-.08.14-.05.04-.16.06-.32.06h-2.03c-.26,0-.57,0-.93.02-.36.01-.65.02-.87.02s-.34-.07-.34-.22c0-.04.02-.08.07-.13s.12-.07.23-.07h.41v-.02h0ZM80.73,18.17c0,.87.19,1.54.57,2.03.38.48.91.72,1.58.72.38,0,.74-.08,1.08-.24.34-.16.63-.39.89-.7.26-.31.46-.69.61-1.16.15-.46.23-.99.23-1.6s-.08-1.13-.24-1.6c-.16-.47-.37-.88-.63-1.22-.26-.34-.58-.6-.94-.78-.36-.18-.74-.28-1.14-.28-.47,0-.88.09-1.22.26-.34.17-.61.33-.79.47v4.09h0Z"/>
      </g>
      <g>
        <path class="st12" d="M97.56,19.2c0,.28.01.52.04.73s.09.38.19.51c.1.13.25.23.44.3.2.07.46.1.79.1.2,0,.33.02.39.07s.09.1.09.17c0,.05-.02.11-.05.16-.03.05-.14.08-.31.08s-.45,0-.85-.02c-.4-.01-.97-.02-1.72-.02s-1.29,0-1.65.02c-.36.01-.63.02-.8.02s-.28-.03-.32-.08-.06-.11-.06-.16c0-.07.03-.12.1-.17s.19-.07.38-.07c.42,0,.75-.09.99-.26s.36-.5.36-.99v-10.37c0-.5-.12-.83-.36-1-.24-.16-.57-.25-.99-.25-.18,0-.31-.02-.38-.07s-.1-.1-.1-.17.02-.12.06-.17.14-.07.32-.07h5.02c.17,0,.27.02.31.07.03.05.05.1.05.17s-.03.12-.09.17-.19.07-.39.07c-.33,0-.59.03-.79.1-.2.07-.35.16-.44.3-.1.13-.16.3-.19.5-.03.2-.04.44-.04.72v5.08l4.33-4.19c.14-.13.29-.27.43-.41.14-.14.28-.28.4-.41s.22-.28.3-.43c.08-.15.12-.31.12-.48,0-.26-.1-.46-.29-.58-.19-.13-.4-.19-.62-.19-.18,0-.31-.03-.38-.09s-.1-.12-.1-.17c0-.14.09-.22.26-.22h4.7c.2,0,.3.07.3.22,0,.05-.02.11-.06.16-.04.05-.15.09-.32.1-.13.01-.31.05-.54.12s-.44.15-.64.26c-.24.13-.49.3-.75.5s-.53.43-.81.67-.55.49-.82.74-.52.49-.74.71l-2.35,2.29,5.14,6.18c.33.4.72.72,1.19.97.46.25.9.39,1.3.41.22.01.34.1.34.26,0,.05-.03.11-.08.17s-.14.09-.26.09c-.29,0-.6-.01-.92-.04s-.62-.04-.88-.04h-.85c-.29,0-.57,0-.85.02l-5.57-6.66-.97.93v3.64h-.01Z"/>
        <path class="st12" d="M113.15,19.59c0,.46.05.79.16,1,.11.2.32.31.65.31.18,0,.3.02.36.06.05.04.08.09.08.16,0,.04-.02.08-.07.13s-.14.07-.27.07h-1.75c-.26,0-.54,0-.83.02-.29.01-.53.02-.71.02-.28,0-.42-.07-.42-.22,0-.13.13-.2.4-.2.3,0,.52-.11.65-.34.13-.22.2-.59.2-1.11v-9.96c0-.3-.07-.51-.2-.62s-.3-.2-.49-.27c-.17-.07-.29-.12-.35-.17s-.09-.1-.09-.17c0-.09.05-.16.16-.22l1.96-.77c.16-.04.27-.06.34-.06.16,0,.24.09.24.28v12.09l-.02-.03h0Z"/>
        <path class="st12" d="M121.86,21.45c-.61,0-1.18-.11-1.71-.33s-1-.52-1.39-.91c-.4-.39-.71-.86-.94-1.4-.23-.55-.35-1.15-.35-1.81s.12-1.26.35-1.81c.23-.55.54-1.01.94-1.4.4-.39.86-.69,1.39-.91s1.1-.33,1.71-.33,1.16.11,1.69.33,1,.52,1.39.91c.4.39.71.86.94,1.4.23.55.35,1.15.35,1.81s-.12,1.26-.35,1.81c-.23.55-.54,1.01-.94,1.4s-.86.69-1.39.91-1.1.33-1.69.33ZM121.86,20.99c.57,0,1.02-.14,1.37-.42.35-.28.61-.63.79-1.05s.3-.85.36-1.3c.06-.45.09-.86.09-1.22s-.03-.77-.09-1.23c-.06-.47-.18-.91-.36-1.31-.18-.41-.44-.75-.79-1.04-.35-.28-.81-.42-1.37-.42s-1.04.14-1.38.42-.61.63-.79,1.04-.31.85-.37,1.31c-.06.47-.09.88-.09,1.23s.03.76.09,1.22c.06.45.18.89.37,1.3.18.41.45.76.79,1.05.34.28.8.42,1.38.42Z"/>
        <path class="st12" d="M129.59,18.68c0-.13.07-.2.2-.2.07,0,.12.03.15.09s.06.12.09.19c.05.18.13.4.22.65s.22.49.39.73c.16.24.37.44.6.6.24.16.53.25.87.25.51,0,.95-.12,1.31-.35s.54-.64.54-1.22c0-.43-.13-.77-.38-1s-.56-.44-.93-.62l-1.42-.65c-.15-.07-.31-.16-.5-.28s-.37-.27-.53-.44c-.16-.18-.31-.39-.42-.64-.12-.25-.18-.54-.18-.87,0-.41.09-.76.27-1.06s.4-.54.67-.74.57-.34.89-.43c.32-.09.64-.14.94-.14.49,0,.93.04,1.32.12.4.08.7.16.93.26.2.08.3.19.3.34l.08,1.64c0,.05,0,.1-.04.15-.03.05-.07.07-.14.07-.11,0-.2-.11-.3-.32-.46-1.17-1.23-1.76-2.31-1.76-.16,0-.32.02-.49.07-.17.05-.33.12-.48.22s-.27.23-.37.39c-.09.16-.14.34-.14.55,0,.36.13.65.38.87s.55.41.89.55l1.4.63c.18.08.39.19.62.34.23.14.45.32.65.52s.38.45.51.73c.14.28.21.6.21.96,0,.55-.12,1-.37,1.33-.24.34-.54.6-.89.78s-.71.31-1.1.37c-.38.06-.7.09-.97.09-.57,0-1.03-.04-1.4-.13-.37-.09-.61-.15-.73-.21-.09-.04-.16-.08-.22-.13-.05-.05-.09-.12-.12-.23v-2.07h0Z"/>
        <path class="st12" d="M140.34,15.52c-.03.15-.04.27-.05.39v.39c0,.54.06,1.04.18,1.51s.31.88.56,1.23c.26.36.59.64.99.84.4.2.88.31,1.43.31.5,0,.92-.08,1.25-.25.34-.16.61-.36.81-.57.2-.22.36-.43.47-.63.11-.2.19-.35.25-.44.03-.05.06-.11.09-.17s.09-.09.17-.09c.13,0,.2.07.2.2,0,.07-.03.21-.08.43-.05.22-.12.41-.22.57-.38.75-.87,1.31-1.46,1.67-.59.36-1.27.54-2.04.54-.66,0-1.24-.11-1.75-.34s-.94-.54-1.29-.94c-.36-.4-.63-.88-.81-1.43-.18-.55-.28-1.15-.28-1.8,0-.51.09-1.03.27-1.56.18-.53.44-1,.79-1.41.35-.41.77-.75,1.28-1.02.5-.26,1.07-.4,1.72-.4s1.2.1,1.67.31c.47.2.85.45,1.14.73.29.28.5.57.64.86s.21.52.21.69c0,.11-.02.19-.07.27-.05.07-.15.11-.31.11h-5.76,0ZM144.49,15.03c0-.14-.03-.33-.08-.55s-.14-.44-.27-.66-.3-.41-.53-.56c-.23-.16-.53-.24-.9-.24-.58,0-1.07.18-1.47.53-.4.36-.68.85-.84,1.48,0,0,4.09,0,4.09,0Z"/>
        <path class="st12" d="M152.43,18.96c0,.49.1.88.29,1.19.19.3.54.45,1.04.45.42,0,.74-.08.95-.23.21-.15.35-.26.42-.33.13-.13.23-.2.3-.2.09,0,.15.02.17.06.02.04.03.08.03.12,0,.11-.09.24-.26.4-.04.04-.12.12-.25.23-.13.11-.29.23-.48.35s-.43.22-.7.32c-.27.09-.58.14-.92.14-.42,0-.77-.06-1.05-.19-.28-.13-.49-.29-.65-.48-.16-.2-.27-.42-.34-.68-.07-.26-.1-.52-.1-.78v-5.71h-.93c-.07,0-.12-.02-.17-.07-.05-.05-.07-.1-.07-.17,0-.04,0-.08.04-.12s.09-.09.18-.14c.22-.12.43-.26.63-.41.2-.16.4-.36.59-.59.16-.18.29-.37.4-.55s.2-.35.27-.49c.07-.14.13-.25.19-.31s.12-.09.19-.09.12.02.17.05.07.09.07.17v1.86h2.98l-.49.81h-2.49v5.41-.02h0Z"/>
      </g>
      <g>
        <path class="st12" d="M166.85,19.2c0,.28,0,.52.04.73s.09.38.19.51c.1.13.25.23.44.3.2.07.46.1.79.1.2,0,.33.02.39.07s.09.1.09.17c0,.05-.02.11-.05.16s-.14.08-.31.08-.45,0-.85-.02c-.39-.01-.97-.02-1.72-.02s-1.29,0-1.65.02c-.36.01-.63.02-.8.02s-.28-.03-.32-.08c-.04-.05-.06-.11-.06-.16,0-.07.03-.12.1-.17s.19-.07.38-.07c.42,0,.75-.09.99-.26s.36-.5.36-.99v-10.37c0-.5-.12-.83-.36-1-.24-.16-.57-.25-.99-.25-.18,0-.31-.02-.38-.07s-.1-.1-.1-.17.02-.12.06-.17.14-.07.32-.07h5.02c.17,0,.27.02.31.07.03.05.05.1.05.17s-.03.12-.09.17-.19.07-.39.07c-.33,0-.59.03-.79.1-.2.07-.35.16-.44.3-.1.13-.16.3-.19.5-.03.2-.04.44-.04.72v9.6h0Z"/>
        <path class="st12" d="M174.53,19.59c0,.46.06.79.17,1,.11.2.34.31.68.31.16,0,.26.02.32.06.05.04.08.09.08.16s-.03.12-.08.15c-.05.03-.16.05-.32.05h-1.69c-.26,0-.54,0-.84.02-.3.01-.54.02-.74.02-.25,0-.38-.07-.38-.2,0-.14.13-.22.4-.22.32,0,.54-.11.67-.34.13-.22.2-.59.2-1.11v-4.62c0-.3-.07-.52-.21-.65s-.31-.24-.52-.34c-.16-.08-.27-.14-.33-.19-.06-.05-.09-.1-.09-.15,0-.09.05-.16.16-.22l1.96-.67c.16-.04.27-.06.34-.06.16,0,.24.09.24.28v1.24c.11-.12.25-.26.43-.43s.4-.34.65-.5.53-.3.84-.41.65-.17,1.02-.17c.83,0,1.5.3,2.02.89.51.59.77,1.44.77,2.55v3.54c0,.47.06.82.18,1.04.12.22.33.33.63.33.18,0,.3.02.36.06.05.04.08.1.08.18,0,.05-.02.1-.06.14s-.13.06-.28.06c-.12,0-.31,0-.57-.03-.26-.02-.59-.03-.97-.03s-.72,0-1.01.03c-.29.02-.54.03-.75.03-.17,0-.28-.02-.33-.06-.05-.04-.07-.09-.07-.14,0-.16.11-.24.34-.24.34,0,.58-.1.71-.29s.2-.5.2-.92v-3.34c0-.92-.17-1.63-.5-2.13-.34-.5-.85-.75-1.53-.75-.26,0-.51.05-.74.16-.23.11-.44.23-.63.37s-.35.28-.48.42c-.13.15-.23.26-.3.36v4.82l-.03-.06h0Z"/>
        <path class="st12" d="M186.9,21.13c-.49-.21-.91-.5-1.25-.88-.35-.38-.62-.82-.81-1.34s-.29-1.08-.29-1.69c0-.67.12-1.29.35-1.86.23-.57.54-1.06.94-1.47.39-.41.86-.74,1.4-.98s1.12-.36,1.74-.36c.54,0,1.01.08,1.41.24.4.16.73.35,1,.56.26.22.46.44.59.67.13.23.2.42.2.58,0,.26-.08.46-.23.58-.15.13-.32.19-.5.19-.24,0-.42-.06-.53-.18s-.21-.27-.29-.44c-.07-.18-.14-.37-.2-.57s-.15-.4-.26-.57c-.11-.18-.27-.33-.46-.44-.2-.12-.47-.18-.83-.18-.32,0-.63.08-.94.24s-.59.4-.83.71-.44.71-.6,1.2c-.16.48-.24,1.05-.24,1.71s.08,1.17.24,1.62.37.82.64,1.11.58.5.94.63.72.2,1.11.2c.41,0,.77-.07,1.08-.22.31-.14.57-.32.78-.51.21-.2.38-.39.5-.57s.21-.32.25-.4c.08-.21.18-.32.3-.32.13,0,.2.08.2.24,0,.07-.07.25-.2.55-.13.3-.35.62-.64.96-.3.34-.68.64-1.16.91s-1.05.4-1.74.4c-.61,0-1.16-.11-1.66-.32h-.01Z"/>
        <path class="st12" d="M197.73,21.45c-.34,0-.63-.11-.85-.34s-.34-.5-.34-.83.11-.59.34-.81c.22-.22.51-.34.85-.34.32,0,.59.11.81.34.22.22.34.49.34.81s-.11.61-.34.83-.49.34-.81.34Z"/>
      </g>
    </g>
    <circle class="st12" cx="15.8" cy="14.87" r="12.53"/>
  </g>
  <g>
    <g>
      <path class="st5" d="M41.25,21.27c-.09.09-.2.14-.32.14-.15,0-.22-.09-.24-.28l-.1-1.88c-.03-.47-.06-.9-.09-1.26-.03-.37-.05-.58-.05-.63,0-.14.09-.22.28-.22.07,0,.13.02.19.05s.1.1.11.21c.03.12.09.36.2.71.11.36.29.74.55,1.17.16.22.34.44.53.66.2.22.43.41.69.57s.56.3.9.4.71.15,1.14.15c.71,0,1.27-.11,1.69-.32.41-.21.73-.46.95-.74s.36-.58.41-.89c.06-.31.09-.56.09-.76,0-.47-.11-.88-.32-1.21s-.5-.62-.88-.88-.82-.48-1.33-.68c-.51-.2-1.07-.41-1.68-.63-.4-.14-.79-.31-1.2-.48-.4-.18-.76-.4-1.09-.66-.32-.26-.58-.59-.78-.98-.2-.39-.3-.87-.3-1.43,0-.75.16-1.39.47-1.93s.71-.97,1.19-1.3c.47-.34.98-.58,1.53-.74s1.05-.24,1.51-.24.87.04,1.22.13c.35.09.65.18.91.3.26.11.47.21.64.3s.32.13.43.13c.08,0,.14-.02.2-.07.05-.05.1-.1.15-.15.05-.05.1-.1.15-.15.05-.05.12-.07.2-.07.14,0,.22.08.22.24,0,.12,0,.37.02.74,0,.38.03.77.06,1.2.03.38.05.73.08,1.05.03.32.04.54.04.67,0,.08-.02.13-.07.16s-.1.04-.17.04c-.09,0-.16-.02-.19-.05s-.06-.12-.09-.25c-.18-.71-.4-1.3-.65-1.78-.25-.47-.54-.85-.86-1.13s-.68-.47-1.06-.59-.79-.18-1.22-.18c-.4,0-.77.08-1.13.23s-.67.36-.95.61c-.28.26-.49.56-.65.9s-.24.7-.24,1.09c0,.42.08.78.23,1.07.15.29.36.53.61.73.26.2.56.36.9.49s.71.26,1.11.38c.55.17,1.12.36,1.7.56.58.2,1.1.47,1.56.8.46.33.84.73,1.14,1.21s.44,1.07.44,1.78c0,.58-.12,1.12-.35,1.61s-.56.93-.99,1.29c-.43.37-.94.66-1.54.86-.6.2-1.27.31-2.01.31-.7,0-1.27-.08-1.71-.24s-.73-.26-.88-.32c-.22-.11-.39-.2-.5-.28s-.21-.12-.31-.12c-.08,0-.14.04-.19.11s-.09.14-.13.19l-.2.3s.03-.02.03-.02Z"/>
      <path class="st2" d="M56.09,19.59c0,.46.05.79.16,1,.11.2.33.31.67.31.18,0,.3.02.35.07s.07.1.07.17c0,.04-.03.08-.08.12-.05.04-.16.06-.32.06h-1.67c-.26,0-.54,0-.84.02-.3.01-.54.02-.72.02-.26,0-.4-.07-.4-.22,0-.07.03-.12.08-.15.05-.03.15-.05.3-.05.3,0,.52-.11.65-.34s.2-.6.2-1.12v-10.05c0-.31-.06-.52-.19-.63-.13-.11-.29-.2-.5-.27-.29-.11-.43-.22-.43-.34,0-.09.05-.16.16-.22l1.96-.66c.16-.03.27-.05.34-.05.16,0,.24.09.24.28v6.4c.11-.12.25-.25.43-.41.18-.15.4-.3.65-.43.25-.14.53-.26.85-.36.32-.1.65-.15,1.01-.15s.72.04,1.07.13c.34.09.65.24.92.47.27.23.48.55.64.95s.24.92.24,1.55v3.87c0,.47.06.82.18,1.04.12.22.33.33.63.33.18,0,.3.02.36.06.05.04.08.1.08.18,0,.05-.02.1-.06.14-.04.04-.13.06-.28.06-.12,0-.31,0-.57-.03-.26-.02-.59-.03-.97-.03s-.72,0-1.01.03c-.29.02-.54.03-.75.03-.18,0-.3-.02-.34-.06-.04-.04-.06-.09-.06-.14,0-.08.02-.14.06-.18s.13-.06.28-.06c.34,0,.58-.1.71-.29.13-.19.2-.5.2-.92v-3.71c0-.97-.16-1.66-.48-2.06-.32-.4-.81-.6-1.45-.6-.29,0-.56.05-.81.15-.25.1-.47.21-.67.35-.2.13-.37.27-.51.41-.15.15-.26.26-.34.36v5.02l-.04-.05Z"/>
      <path class="st9" d="M70.56,21.45c-.61,0-1.18-.11-1.71-.33s-1-.52-1.39-.91c-.4-.39-.71-.86-.94-1.4-.23-.55-.35-1.15-.35-1.81s.12-1.26.35-1.81c.23-.55.54-1.01.94-1.4.4-.39.86-.69,1.39-.91s1.1-.33,1.71-.33,1.16.11,1.69.33,1,.52,1.39.91c.4.39.71.86.94,1.4.23.55.35,1.15.35,1.81s-.12,1.26-.35,1.81c-.23.55-.54,1.01-.94,1.4s-.86.69-1.39.91-1.1.33-1.69.33ZM70.56,20.99c.57,0,1.02-.14,1.37-.42.35-.28.61-.63.79-1.05s.3-.85.36-1.3c.06-.45.09-.86.09-1.22s-.03-.77-.09-1.23c-.06-.47-.18-.91-.36-1.31-.18-.41-.44-.75-.79-1.04-.35-.28-.81-.42-1.37-.42s-1.04.14-1.38.42-.61.63-.79,1.04-.31.85-.37,1.31c-.06.47-.09.88-.09,1.23s.03.76.09,1.22c.06.45.18.89.37,1.3.18.41.45.76.79,1.05.34.28.8.42,1.38.42Z"/>
      <path class="st8" d="M78.48,24.2c.26,0,.44-.07.54-.2.1-.13.15-.43.15-.89v-8.24c0-.24-.04-.42-.13-.54s-.25-.23-.5-.33c-.17-.07-.3-.12-.38-.16-.08-.04-.12-.09-.12-.16,0-.09.05-.16.16-.22l1.96-.85c.16-.04.26-.06.32-.06.17,0,.26.09.26.28v.71c.28-.24.64-.46,1.08-.67s.97-.32,1.59-.32c.45,0,.9.08,1.36.25.46.16.88.42,1.24.76.37.34.67.78.9,1.3.23.53.35,1.15.35,1.88,0,.84-.14,1.56-.41,2.15-.28.59-.63,1.07-1.06,1.44s-.9.64-1.41.8-1.01.25-1.48.25c-.55,0-1.02-.07-1.4-.22-.38-.14-.63-.26-.75-.34v2.31c0,.45.08.73.24.86.16.13.43.19.81.19.25,0,.41.02.46.06.06.04.09.09.09.16,0,.05-.03.1-.08.14-.05.04-.16.06-.32.06h-2.03c-.26,0-.57,0-.93.02-.36.01-.65.02-.87.02s-.34-.07-.34-.22c0-.04.02-.08.07-.13s.12-.07.23-.07h.41v-.02h0ZM80.73,18.17c0,.87.19,1.54.57,2.03.38.48.91.72,1.58.72.38,0,.74-.08,1.08-.24.34-.16.63-.39.89-.7.26-.31.46-.69.61-1.16.15-.46.23-.99.23-1.6s-.08-1.13-.24-1.6c-.16-.47-.37-.88-.63-1.22-.26-.34-.58-.6-.94-.78-.36-.18-.74-.28-1.14-.28-.47,0-.88.09-1.22.26-.34.17-.61.33-.79.47v4.09h0Z"/>
    </g>
    <g>
      <path class="st0" d="M97.56,19.2c0,.28.01.52.04.73s.09.38.19.51c.1.13.25.23.44.3.2.07.46.1.79.1.2,0,.33.02.39.07s.09.1.09.17c0,.05-.02.11-.05.16-.03.05-.14.08-.31.08s-.45,0-.85-.02c-.4-.01-.97-.02-1.72-.02s-1.29,0-1.65.02c-.36.01-.63.02-.8.02s-.28-.03-.32-.08-.06-.11-.06-.16c0-.07.03-.12.1-.17s.19-.07.38-.07c.42,0,.75-.09.99-.26s.36-.5.36-.99v-10.37c0-.5-.12-.83-.36-1-.24-.16-.57-.25-.99-.25-.18,0-.31-.02-.38-.07s-.1-.1-.1-.17.02-.12.06-.17.14-.07.32-.07h5.02c.17,0,.27.02.31.07.03.05.05.1.05.17s-.03.12-.09.17-.19.07-.39.07c-.33,0-.59.03-.79.1-.2.07-.35.16-.44.3-.1.13-.16.3-.19.5-.03.2-.04.44-.04.72v5.08l4.33-4.19c.14-.13.29-.27.43-.41.14-.14.28-.28.4-.41s.22-.28.3-.43c.08-.15.12-.31.12-.48,0-.26-.1-.46-.29-.58-.19-.13-.4-.19-.62-.19-.18,0-.31-.03-.38-.09s-.1-.12-.1-.17c0-.14.09-.22.26-.22h4.7c.2,0,.3.07.3.22,0,.05-.02.11-.06.16-.04.05-.15.09-.32.1-.13.01-.31.05-.54.12s-.44.15-.64.26c-.24.13-.49.3-.75.5s-.53.43-.81.67-.55.49-.82.74-.52.49-.74.71l-2.35,2.29,5.14,6.18c.33.4.72.72,1.19.97.46.25.9.39,1.3.41.22.01.34.1.34.26,0,.05-.03.11-.08.17s-.14.09-.26.09c-.29,0-.6-.01-.92-.04s-.62-.04-.88-.04h-.85c-.29,0-.57,0-.85.02l-5.57-6.66-.97.93v3.64h-.01Z"/>
      <path class="st1" d="M113.15,19.59c0,.46.05.79.16,1,.11.2.32.31.65.31.18,0,.3.02.36.06.05.04.08.09.08.16,0,.04-.02.08-.07.13s-.14.07-.27.07h-1.75c-.26,0-.54,0-.83.02-.29.01-.53.02-.71.02-.28,0-.42-.07-.42-.22,0-.13.13-.2.4-.2.3,0,.52-.11.65-.34.13-.22.2-.59.2-1.11v-9.96c0-.3-.07-.51-.2-.62s-.3-.2-.49-.27c-.17-.07-.29-.12-.35-.17s-.09-.1-.09-.17c0-.09.05-.16.16-.22l1.96-.77c.16-.04.27-.06.34-.06.16,0,.24.09.24.28v12.09l-.02-.03h0Z"/>
      <path class="st14" d="M121.86,21.45c-.61,0-1.18-.11-1.71-.33s-1-.52-1.39-.91c-.4-.39-.71-.86-.94-1.4-.23-.55-.35-1.15-.35-1.81s.12-1.26.35-1.81c.23-.55.54-1.01.94-1.4.4-.39.86-.69,1.39-.91s1.1-.33,1.71-.33,1.16.11,1.69.33,1,.52,1.39.91c.4.39.71.86.94,1.4.23.55.35,1.15.35,1.81s-.12,1.26-.35,1.81c-.23.55-.54,1.01-.94,1.4s-.86.69-1.39.91-1.1.33-1.69.33ZM121.86,20.99c.57,0,1.02-.14,1.37-.42.35-.28.61-.63.79-1.05s.3-.85.36-1.3c.06-.45.09-.86.09-1.22s-.03-.77-.09-1.23c-.06-.47-.18-.91-.36-1.31-.18-.41-.44-.75-.79-1.04-.35-.28-.81-.42-1.37-.42s-1.04.14-1.38.42-.61.63-.79,1.04-.31.85-.37,1.31c-.06.47-.09.88-.09,1.23s.03.76.09,1.22c.06.45.18.89.37,1.3.18.41.45.76.79,1.05.34.28.8.42,1.38.42Z"/>
      <path class="st7" d="M129.59,18.68c0-.13.07-.2.2-.2.07,0,.12.03.15.09s.06.12.09.19c.05.18.13.4.22.65s.22.49.39.73c.16.24.37.44.6.6.24.16.53.25.87.25.51,0,.95-.12,1.31-.35s.54-.64.54-1.22c0-.43-.13-.77-.38-1s-.56-.44-.93-.62l-1.42-.65c-.15-.07-.31-.16-.5-.28s-.37-.27-.53-.44c-.16-.18-.31-.39-.42-.64-.12-.25-.18-.54-.18-.87,0-.41.09-.76.27-1.06s.4-.54.67-.74.57-.34.89-.43c.32-.09.64-.14.94-.14.49,0,.93.04,1.32.12.4.08.7.16.93.26.2.08.3.19.3.34l.08,1.64c0,.05,0,.1-.04.15-.03.05-.07.07-.14.07-.11,0-.2-.11-.3-.32-.46-1.17-1.23-1.76-2.31-1.76-.16,0-.32.02-.49.07-.17.05-.33.12-.48.22s-.27.23-.37.39c-.09.16-.14.34-.14.55,0,.36.13.65.38.87s.55.41.89.55l1.4.63c.18.08.39.19.62.34.23.14.45.32.65.52s.38.45.51.73c.14.28.21.6.21.96,0,.55-.12,1-.37,1.33-.24.34-.54.6-.89.78s-.71.31-1.1.37c-.38.06-.7.09-.97.09-.57,0-1.03-.04-1.4-.13-.37-.09-.61-.15-.73-.21-.09-.04-.16-.08-.22-.13-.05-.05-.09-.12-.12-.23v-2.07h0Z"/>
      <path class="st15" d="M140.34,15.52c-.03.15-.04.27-.05.39v.39c0,.54.06,1.04.18,1.51s.31.88.56,1.23c.26.36.59.64.99.84.4.2.88.31,1.43.31.5,0,.92-.08,1.25-.25.34-.16.61-.36.81-.57.2-.22.36-.43.47-.63.11-.2.19-.35.25-.44.03-.05.06-.11.09-.17s.09-.09.17-.09c.13,0,.2.07.2.2,0,.07-.03.21-.08.43-.05.22-.12.41-.22.57-.38.75-.87,1.31-1.46,1.67-.59.36-1.27.54-2.04.54-.66,0-1.24-.11-1.75-.34s-.94-.54-1.29-.94c-.36-.4-.63-.88-.81-1.43-.18-.55-.28-1.15-.28-1.8,0-.51.09-1.03.27-1.56.18-.53.44-1,.79-1.41.35-.41.77-.75,1.28-1.02.5-.26,1.07-.4,1.72-.4s1.2.1,1.67.31c.47.2.85.45,1.14.73.29.28.5.57.64.86s.21.52.21.69c0,.11-.02.19-.07.27-.05.07-.15.11-.31.11h-5.76,0ZM144.49,15.03c0-.14-.03-.33-.08-.55s-.14-.44-.27-.66-.3-.41-.53-.56c-.23-.16-.53-.24-.9-.24-.58,0-1.07.18-1.47.53-.4.36-.68.85-.84,1.48,0,0,4.09,0,4.09,0Z"/>
      <path class="st13" d="M152.43,18.96c0,.49.1.88.29,1.19.19.3.54.45,1.04.45.42,0,.74-.08.95-.23.21-.15.35-.26.42-.33.13-.13.23-.2.3-.2.09,0,.15.02.17.06.02.04.03.08.03.12,0,.11-.09.24-.26.4-.04.04-.12.12-.25.23-.13.11-.29.23-.48.35s-.43.22-.7.32c-.27.09-.58.14-.92.14-.42,0-.77-.06-1.05-.19-.28-.13-.49-.29-.65-.48-.16-.2-.27-.42-.34-.68-.07-.26-.1-.52-.1-.78v-5.71h-.93c-.07,0-.12-.02-.17-.07-.05-.05-.07-.1-.07-.17,0-.04,0-.08.04-.12s.09-.09.18-.14c.22-.12.43-.26.63-.41.2-.16.4-.36.59-.59.16-.18.29-.37.4-.55s.2-.35.27-.49c.07-.14.13-.25.19-.31s.12-.09.19-.09.12.02.17.05.07.09.07.17v1.86h2.98l-.49.81h-2.49v5.41-.02h0Z"/>
    </g>
    <g>
      <path class="st4" d="M166.85,19.2c0,.28,0,.52.04.73s.09.38.19.51c.1.13.25.23.44.3.2.07.46.1.79.1.2,0,.33.02.39.07s.09.1.09.17c0,.05-.02.11-.05.16s-.14.08-.31.08-.45,0-.85-.02c-.39-.01-.97-.02-1.72-.02s-1.29,0-1.65.02c-.36.01-.63.02-.8.02s-.28-.03-.32-.08c-.04-.05-.06-.11-.06-.16,0-.07.03-.12.1-.17s.19-.07.38-.07c.42,0,.75-.09.99-.26s.36-.5.36-.99v-10.37c0-.5-.12-.83-.36-1-.24-.16-.57-.25-.99-.25-.18,0-.31-.02-.38-.07s-.1-.1-.1-.17.02-.12.06-.17.14-.07.32-.07h5.02c.17,0,.27.02.31.07.03.05.05.1.05.17s-.03.12-.09.17-.19.07-.39.07c-.33,0-.59.03-.79.1-.2.07-.35.16-.44.3-.1.13-.16.3-.19.5-.03.2-.04.44-.04.72v9.6h0Z"/>
      <path class="st4" d="M174.53,19.59c0,.46.06.79.17,1,.11.2.34.31.68.31.16,0,.26.02.32.06.05.04.08.09.08.16s-.03.12-.08.15c-.05.03-.16.05-.32.05h-1.69c-.26,0-.54,0-.84.02-.3.01-.54.02-.74.02-.25,0-.38-.07-.38-.2,0-.14.13-.22.4-.22.32,0,.54-.11.67-.34.13-.22.2-.59.2-1.11v-4.62c0-.3-.07-.52-.21-.65s-.31-.24-.52-.34c-.16-.08-.27-.14-.33-.19-.06-.05-.09-.1-.09-.15,0-.09.05-.16.16-.22l1.96-.67c.16-.04.27-.06.34-.06.16,0,.24.09.24.28v1.24c.11-.12.25-.26.43-.43s.4-.34.65-.5.53-.3.84-.41.65-.17,1.02-.17c.83,0,1.5.3,2.02.89.51.59.77,1.44.77,2.55v3.54c0,.47.06.82.18,1.04.12.22.33.33.63.33.18,0,.3.02.36.06.05.04.08.1.08.18,0,.05-.02.1-.06.14s-.13.06-.28.06c-.12,0-.31,0-.57-.03-.26-.02-.59-.03-.97-.03s-.72,0-1.01.03c-.29.02-.54.03-.75.03-.17,0-.28-.02-.33-.06-.05-.04-.07-.09-.07-.14,0-.16.11-.24.34-.24.34,0,.58-.1.71-.29s.2-.5.2-.92v-3.34c0-.92-.17-1.63-.5-2.13-.34-.5-.85-.75-1.53-.75-.26,0-.51.05-.74.16-.23.11-.44.23-.63.37s-.35.28-.48.42c-.13.15-.23.26-.3.36v4.82l-.03-.06h0Z"/>
      <path class="st4" d="M186.9,21.13c-.49-.21-.91-.5-1.25-.88-.35-.38-.62-.82-.81-1.34s-.29-1.08-.29-1.69c0-.67.12-1.29.35-1.86.23-.57.54-1.06.94-1.47.39-.41.86-.74,1.4-.98s1.12-.36,1.74-.36c.54,0,1.01.08,1.41.24.4.16.73.35,1,.56.26.22.46.44.59.67.13.23.2.42.2.58,0,.26-.08.46-.23.58-.15.13-.32.19-.5.19-.24,0-.42-.06-.53-.18s-.21-.27-.29-.44c-.07-.18-.14-.37-.2-.57s-.15-.4-.26-.57c-.11-.18-.27-.33-.46-.44-.2-.12-.47-.18-.83-.18-.32,0-.63.08-.94.24s-.59.4-.83.71-.44.71-.6,1.2c-.16.48-.24,1.05-.24,1.71s.08,1.17.24,1.62.37.82.64,1.11.58.5.94.63.72.2,1.11.2c.41,0,.77-.07,1.08-.22.31-.14.57-.32.78-.51.21-.2.38-.39.5-.57s.21-.32.25-.4c.08-.21.18-.32.3-.32.13,0,.2.08.2.24,0,.07-.07.25-.2.55-.13.3-.35.62-.64.96-.3.34-.68.64-1.16.91s-1.05.4-1.74.4c-.61,0-1.16-.11-1.66-.32h-.01Z"/>
      <path class="st4" d="M197.73,21.45c-.34,0-.63-.11-.85-.34s-.34-.5-.34-.83.11-.59.34-.81c.22-.22.51-.34.85-.34.32,0,.59.11.81.34.22.22.34.49.34.81s-.11.61-.34.83-.49.34-.81.34Z"/>
    </g>
  </g>
  <circle class="st11" cx="15.8" cy="14.87" r="12.53"/>
  <g>
    <path class="st3" d="M7.24,21.1c-.07.08-.16.12-.25.12-.11,0-.18-.08-.19-.24l-.08-1.63c-.02-.41-.04-.78-.07-1.1s-.04-.5-.04-.55c0-.13.07-.19.22-.19.05,0,.1.01.15.04s.08.09.09.18c.02.1.07.31.16.62.08.31.23.65.44,1.01.12.19.27.39.42.57.16.19.34.35.55.5.21.14.44.26.71.34.27.09.56.13.9.13.56,0,1.01-.09,1.33-.27.33-.18.58-.4.75-.64.17-.25.28-.5.33-.77s.07-.49.07-.66c0-.41-.08-.76-.25-1.05-.17-.29-.4-.54-.69-.76-.3-.22-.65-.42-1.05-.59-.41-.17-.85-.35-1.33-.55-.31-.13-.63-.27-.94-.42-.32-.15-.6-.35-.86-.57-.25-.23-.46-.51-.62-.85s-.23-.75-.23-1.24c0-.65.12-1.21.37-1.67s.56-.84.94-1.13.78-.51,1.21-.64c.43-.14.83-.21,1.19-.21s.68.04.96.11.51.16.72.26c.2.1.37.18.51.26.14.07.25.11.34.11.06,0,.11-.02.16-.06.04-.04.08-.08.12-.13s.08-.09.12-.13.09-.06.16-.06c.11,0,.17.07.17.21,0,.1,0,.32.02.64.01.33.03.67.05,1.04.02.33.04.63.06.91.02.27.03.47.03.58,0,.07-.02.11-.05.14-.04.02-.08.03-.13.03-.07,0-.12-.01-.15-.04s-.05-.1-.07-.21c-.15-.62-.32-1.13-.51-1.54-.2-.41-.42-.74-.68-.98-.25-.24-.53-.41-.83-.51s-.62-.15-.97-.15c-.31,0-.61.07-.89.2-.28.13-.53.31-.75.53-.22.22-.39.48-.51.78s-.19.61-.19.94c0,.37.06.68.18.93s.28.46.48.63.44.31.71.43c.27.11.56.22.87.33.44.15.88.31,1.34.49.46.18.87.41,1.23.69.36.29.66.63.9,1.05.23.41.35.93.35,1.54,0,.5-.09.97-.27,1.4s-.44.8-.78,1.12c-.34.32-.74.57-1.22.75s-1,.27-1.58.27c-.55,0-1-.07-1.35-.21s-.58-.23-.69-.27c-.18-.09-.31-.17-.4-.24s-.17-.1-.24-.1c-.06,0-.11.03-.15.09s-.07.12-.1.16l-.16.26s-.04-.03-.04-.03Z"/>
    <path class="st6" d="M16.82,19.3c0,.24.01.45.03.63.02.18.07.33.15.45.08.11.19.2.35.26s.36.09.62.09c.16,0,.26.02.3.06.05.04.07.09.07.15,0,.05-.01.09-.04.14s-.11.07-.24.07-.36,0-.67-.02c-.31-.01-.76-.02-1.36-.02s-1.02,0-1.3.02c-.29.01-.5.02-.63.02s-.22-.02-.25-.07-.05-.09-.05-.14c0-.06.03-.11.08-.15.05-.04.15-.06.3-.06.33,0,.59-.07.78-.22s.28-.43.28-.86v-9.01c0-.43-.09-.72-.28-.87-.19-.14-.45-.21-.78-.21-.15,0-.24-.02-.3-.06-.05-.04-.08-.09-.08-.15s.02-.11.05-.15.11-.06.25-.06h3.96c.13,0,.22.02.24.06.03.04.04.09.04.15s-.02.11-.07.15-.15.06-.3.06c-.26,0-.47.03-.62.09-.16.06-.27.14-.35.26-.08.11-.13.26-.15.44-.02.18-.03.39-.03.63v4.41l3.42-3.64c.11-.11.23-.23.34-.35.11-.12.22-.24.31-.36s.17-.25.23-.38.09-.27.09-.42c0-.23-.08-.4-.23-.51-.15-.11-.31-.16-.49-.16-.15,0-.24-.03-.3-.08-.05-.05-.08-.1-.08-.15,0-.13.07-.19.2-.19h3.71c.16,0,.23.06.23.19,0,.05-.02.09-.05.14-.03.05-.11.07-.25.09-.1.01-.25.05-.43.1-.18.06-.35.13-.51.22-.19.11-.38.26-.59.44-.21.18-.42.37-.64.58s-.43.43-.65.64c-.21.22-.41.42-.58.62l-1.86,1.99,4.06,5.37c.26.34.57.62.94.84.36.22.71.34,1.03.36.18.01.27.09.27.22,0,.05-.02.09-.06.15-.04.05-.11.08-.2.08-.23,0-.47-.01-.73-.03-.25-.02-.49-.03-.69-.03h-.67c-.23,0-.45,0-.67.02l-4.4-5.78-.76.81v3.16-.03h0Z"/>
  </g>
</svg>